<svg width="170" height="38" viewBox="0 0 170 38" fill="none" xmlns="http://www.w3.org/2000/svg">
<path d="M18.04 12.3162C18.161 12.3081 18.2579 12.3578 18.3305 12.4653C18.4124 12.5721 18.4598 12.7233 18.4728 12.9188C18.4969 13.282 18.4276 13.5766 18.2648 13.8025C17.8536 14.3723 17.4298 14.8214 16.9932 15.1496C16.556 15.4686 16.0254 15.6488 15.4015 15.6902C14.7961 15.7303 14.2685 15.6016 13.8185 15.3041C13.3778 15.0059 12.9402 14.4737 12.5059 13.7075C12.1566 13.0946 11.8836 12.645 11.6869 12.3587C11.4895 12.0631 11.2981 11.856 11.1125 11.7374C10.9362 11.6181 10.7214 11.5528 10.4681 11.5416C10.4438 11.7396 10.3775 12.3614 10.2691 13.4068C10.2255 13.8774 10.1978 14.1646 10.1859 14.2682C10.1305 14.8425 9.97327 15.2926 9.71427 15.6184C9.45465 15.935 9.0408 16.1121 8.47271 16.1498C7.84875 16.1911 7.28259 16.0463 6.77423 15.7152C6.27456 15.3742 5.87273 14.8864 5.56873 14.2518C5.26411 13.6079 5.08401 12.8668 5.02841 12.0287C4.92464 10.4641 5.10514 9.09583 5.56993 7.92383C6.04403 6.75122 6.75023 5.83447 7.68855 5.17358C8.63556 4.50277 9.75166 4.12474 11.0368 4.0395C11.9309 3.9802 12.6895 4.06551 13.3128 4.29543C13.936 4.52535 14.4077 4.86822 14.7279 5.32402C15.0575 5.77921 15.242 6.30482 15.2815 6.90084C15.3161 7.42236 15.2244 7.94291 15.0063 8.46248C14.7969 8.97213 14.458 9.43423 13.9898 9.8488C13.5215 10.2634 12.9397 10.5872 12.2443 10.8205C12.6993 10.9119 13.0569 11.0846 13.3169 11.3386C13.577 11.5926 13.8453 11.9723 14.1221 12.4778C14.4199 13.0193 14.7032 13.4121 14.9719 13.6561C15.25 13.8996 15.5566 14.0102 15.8919 13.988C16.1899 13.9682 16.4675 13.8516 16.7246 13.6381C16.9811 13.4153 17.2981 13.0482 17.6758 12.5367C17.7789 12.3989 17.9003 12.3254 18.04 12.3162ZM8.53941 11.6555C8.22277 11.6765 7.99898 11.6165 7.86803 11.4755C7.74639 11.3339 7.6794 11.17 7.66704 10.9837C7.65222 10.7602 7.71033 10.5787 7.84137 10.439C7.98173 10.2988 8.14504 10.2224 8.33129 10.2101L8.68053 10.1869C8.769 9.26438 8.85649 8.46818 8.94302 7.79831C9.02393 7.18495 9.395 6.85633 10.0562 6.81248C10.587 6.77727 10.8682 6.99714 10.8997 7.4721C10.9065 7.57454 10.9071 7.65401 10.9015 7.7105L10.6362 10.0572C11.1373 9.99591 11.5856 9.84457 11.9811 9.6032C12.386 9.36121 12.6968 9.04127 12.9137 8.64338C13.1398 8.24487 13.2368 7.80348 13.2047 7.31921C13.1657 6.7325 12.9349 6.2848 12.5122 5.97609C12.0895 5.66739 11.4917 5.53868 10.7188 5.58995C9.80609 5.65048 9.02032 5.93177 8.36143 6.43381C7.71124 6.92592 7.22489 7.63166 6.90236 8.55102C6.57921 9.46107 6.45995 10.554 6.54458 11.8299C6.58411 12.4259 6.67862 12.9341 6.8281 13.3545C6.97759 13.7748 7.1479 14.0862 7.33905 14.2887C7.53021 14.4912 7.70494 14.5871 7.86326 14.5766C7.98433 14.5686 8.0781 14.5016 8.14457 14.3756C8.22036 14.249 8.27257 14.0491 8.30123 13.7759L8.53941 11.6555Z" fill="#479CF0"/>
<path d="M18.9546 15.4545C18.3772 15.4928 17.9023 15.3138 17.5299 14.9176C17.1576 14.5214 16.9488 13.9834 16.9037 13.3035C16.8543 12.5585 16.98 11.8439 17.2807 11.1599C17.5808 10.4665 18.0016 9.90073 18.5431 9.46259C19.0934 9.01453 19.6898 8.76919 20.3323 8.72657C20.5372 8.71298 20.675 8.74593 20.7458 8.82542C20.8252 8.89498 20.895 9.03066 20.9552 9.23245C21.1483 9.18223 21.3519 9.15001 21.5661 9.13581C22.0225 9.10554 22.2614 9.25338 22.2831 9.57933C22.296 9.7749 22.2571 10.2452 22.1662 10.9902C22.023 12.0753 21.9653 12.8275 21.9931 13.2466C22.0024 13.3863 22.0424 13.4958 22.1132 13.5753C22.1932 13.6542 22.2891 13.6899 22.4009 13.6825C22.5778 13.6708 22.7846 13.5448 23.0212 13.3046C23.2572 13.0551 23.5724 12.6601 23.9669 12.1195C24.07 11.9817 24.1914 11.9081 24.3311 11.8989C24.4521 11.8908 24.549 11.9405 24.6216 12.048C24.7035 12.1548 24.7509 12.306 24.7639 12.5015C24.7886 12.8741 24.7193 13.1686 24.5559 13.3852C24.2056 13.8855 23.8271 14.3129 23.4203 14.6672C23.0135 15.0216 22.6099 15.212 22.2094 15.2386C21.9021 15.259 21.6113 15.1754 21.3369 14.9878C21.0713 14.7903 20.8612 14.5143 20.7067 14.1597C20.2744 14.9741 19.6903 15.4057 18.9546 15.4545ZM19.3639 14.0102C19.5688 13.9967 19.7563 13.8626 19.9265 13.6081C20.0967 13.3536 20.2105 13.0234 20.2677 12.6174L20.6141 10.0127C20.2236 10.048 19.8702 10.2211 19.5541 10.532C19.2467 10.833 19.0107 11.2228 18.846 11.7015C18.6813 12.1801 18.6162 12.6801 18.6508 13.2017C18.67 13.4904 18.7401 13.7009 18.8611 13.8331C18.9914 13.9648 19.159 14.0238 19.3639 14.0102Z" fill="#479CF0"/>
<path d="M31.3398 11.434C31.4609 11.426 31.5577 11.4757 31.6303 11.5831C31.7123 11.6899 31.7597 11.8411 31.7727 12.0367C31.7974 12.4092 31.7281 12.7037 31.5647 12.9204C31.169 13.4424 30.7536 13.8768 30.3182 14.2237C29.8922 14.57 29.3905 14.7623 28.8131 14.8006C28.3382 14.8321 27.9707 14.7208 27.7106 14.4668C27.4499 14.2035 27.3023 13.8111 27.2677 13.2896C27.2504 13.0288 27.2847 12.5588 27.3706 11.8797C27.4528 11.2849 27.4864 10.8758 27.4716 10.6523C27.4617 10.5033 27.4056 10.4322 27.3031 10.439C27.1821 10.447 27.0203 10.6167 26.8178 10.9482C26.6146 11.2704 26.4183 11.6949 26.2288 12.222C26.0392 12.749 25.8935 13.3012 25.7915 13.8786C25.6639 14.6353 25.2509 15.0369 24.5525 15.0832C24.2731 15.1017 24.0803 15.0163 23.9742 14.8269C23.8768 14.6276 23.8108 14.2672 23.7762 13.7456C23.7565 13.4476 23.7454 13.2098 23.743 13.0323L23.6828 11.9138C23.5877 10.4796 23.6329 8.97534 23.8184 7.40094C24.0133 5.82592 24.3598 4.4934 24.8581 3.40336C25.3651 2.3034 26.0191 1.72685 26.82 1.67373C27.2484 1.64531 27.6053 1.80872 27.8908 2.16393C28.1849 2.50922 28.3515 2.97522 28.3904 3.56193C28.4528 4.50253 28.2429 5.49861 27.7608 6.55016C27.278 7.59239 26.4621 8.82977 25.3131 10.2623C25.3173 10.7484 25.3363 11.2476 25.3703 11.7598C25.6251 10.9478 25.9224 10.2827 26.2622 9.76438C26.6107 9.23616 26.9594 8.85291 27.3084 8.61462C27.6667 8.37572 27.9995 8.24607 28.3069 8.22569C28.9122 8.18554 29.2349 8.46813 29.2751 9.07347C29.2992 9.43667 29.2403 10.1 29.0984 11.0635C28.9752 11.8855 28.9222 12.4268 28.9395 12.6876C28.9643 13.0601 29.1116 13.2374 29.3817 13.2195C29.568 13.2071 29.7794 13.0809 30.016 12.8407C30.2614 12.5906 30.5812 12.1952 30.9756 11.6546C31.0787 11.5168 31.2001 11.4433 31.3398 11.434ZM26.6183 3.07615C26.4507 3.08727 26.2805 3.34176 26.1077 3.83961C25.9344 4.32816 25.7771 4.98869 25.6359 5.82119C25.5033 6.64376 25.4084 7.53868 25.3509 8.50594C25.8832 7.7878 26.3091 7.01592 26.6285 6.19031C26.9572 5.36407 27.0999 4.62501 27.0567 3.9731C27.0369 3.67509 26.9892 3.44909 26.9135 3.29509C26.8378 3.1411 26.7394 3.06812 26.6183 3.07615Z" fill="#479CF0"/>
<path d="M36.8291 11.0699C36.9502 11.0619 37.047 11.1116 37.1196 11.219C37.2015 11.3258 37.249 11.477 37.262 11.6726C37.2867 12.0451 37.2173 12.3396 37.054 12.5563C36.7372 12.9982 36.2739 13.4171 35.6641 13.813C35.0636 14.2083 34.4048 14.4297 33.6877 14.4773C32.7099 14.5421 31.9333 14.3271 31.3579 13.832C30.7826 13.337 30.4643 12.6286 30.4032 11.7066C30.3605 11.064 30.456 10.459 30.6897 9.89164C30.9227 9.31495 31.2659 8.84788 31.7192 8.49043C32.1818 8.13236 32.7158 7.93324 33.3212 7.89309C33.8613 7.85727 34.3052 7.99152 34.6528 8.29585C34.9997 8.59087 35.1914 9.0131 35.2278 9.56256C35.2705 10.2052 35.0744 10.7747 34.6396 11.2712C34.2136 11.7578 33.46 12.1726 32.379 12.5156C32.6403 12.9285 33.0968 13.1134 33.7487 13.0701C34.1678 13.0423 34.6332 12.8665 35.1449 12.5426C35.6653 12.2087 36.1053 11.7914 36.4649 11.2905C36.568 11.1527 36.6894 11.0792 36.8291 11.0699ZM33.1745 9.27784C32.8299 9.30069 32.5499 9.52038 32.3343 9.93689C32.128 10.3528 32.0437 10.8448 32.0814 11.4129L32.0833 11.4408C32.6241 11.274 33.0441 11.0497 33.3435 10.7679C33.6428 10.4862 33.7811 10.173 33.7582 9.82841C33.7465 9.65147 33.686 9.51517 33.5768 9.41952C33.4762 9.31395 33.3421 9.26672 33.1745 9.27784Z" fill="#479CF0"/>
<path d="M42.3132 10.7061C42.4342 10.6981 42.5311 10.7478 42.6037 10.8552C42.6856 10.9621 42.733 11.1132 42.746 11.3088C42.7707 11.6813 42.7014 11.9759 42.538 12.1925C42.2212 12.6345 41.758 13.0534 41.1482 13.4493C40.5477 13.8445 39.8889 14.066 39.1718 14.1135C38.1939 14.1784 37.4173 13.9633 36.842 13.4683C36.2666 12.9733 35.9484 12.2648 35.8872 11.3428C35.8446 10.7002 35.9401 10.0953 36.1737 9.52789C36.4067 8.9512 36.7499 8.48413 37.2032 8.12668C37.6659 7.76861 38.1999 7.56949 38.8052 7.52934C39.3454 7.49352 39.7892 7.62777 40.1368 7.9321C40.4837 8.22712 40.6754 8.64935 40.7119 9.19881C40.7545 9.8414 40.5584 10.411 40.1237 10.9075C39.6976 11.3941 38.9441 11.8089 37.8631 12.1518C38.1243 12.5648 38.5809 12.7496 39.2328 12.7064C39.6519 12.6786 40.1173 12.5027 40.6289 12.1788C41.1493 11.845 41.5893 11.4276 41.949 10.9267C42.0521 10.7889 42.1735 10.7154 42.3132 10.7061ZM38.6585 8.91409C38.314 8.93694 38.0339 9.15663 37.8183 9.57314C37.6121 9.98904 37.5278 10.481 37.5655 11.0491L37.5673 11.0771C38.1081 10.9102 38.5282 10.6859 38.8275 10.4042C39.1269 10.1224 39.2651 9.80924 39.2423 9.46466C39.2305 9.28772 39.17 9.15142 39.0608 9.05577C38.9603 8.9502 38.8262 8.90297 38.6585 8.91409Z" fill="#479CF0"/>
<path d="M45.68 11.6333C45.7763 11.5334 45.8756 11.4801 45.9781 11.4733C46.0898 11.4659 46.1826 11.5252 46.2565 11.6512C46.339 11.7674 46.3861 11.9139 46.3979 12.0908C46.4238 12.482 46.3048 12.8032 46.0409 13.0546C45.5831 13.4872 45.047 13.7238 44.4323 13.7646C43.5476 13.8233 42.876 13.4983 42.4174 12.7898C41.9582 12.072 41.6891 11.117 41.61 9.92496C41.5347 8.78879 41.5931 7.48473 41.7855 6.01277C41.9871 4.5402 42.3374 3.26355 42.8363 2.18283C43.3445 1.10149 43.9944 0.534567 44.786 0.482062C45.233 0.452411 45.5962 0.638787 45.8754 1.04119C46.1633 1.43366 46.333 2.01638 46.3842 2.78935C46.4577 3.89758 46.2356 5.20314 45.718 6.70603C45.2096 8.2083 44.4765 9.70677 43.5187 11.2014C43.6092 11.5789 43.7438 11.846 43.9226 12.0025C44.1013 12.159 44.3351 12.2277 44.6238 12.2085C44.7821 12.198 44.9559 12.1397 45.1453 12.0336C45.344 11.9269 45.5223 11.7935 45.68 11.6333ZM44.5704 1.88541C44.3562 1.89962 44.1397 2.30216 43.9209 3.09304C43.7021 3.88392 43.5283 4.8589 43.3994 6.01797C43.2705 7.17705 43.2316 8.28338 43.2828 9.33697C43.8717 8.2035 44.3256 7.079 44.6445 5.96345C44.9627 4.83858 45.0919 3.82448 45.032 2.92113C44.985 2.21335 44.8312 1.86811 44.5704 1.88541Z" fill="#479CF0"/>
<path d="M48.2166 5.09513C48.0117 5.10872 47.8456 5.07297 47.7184 4.98787C47.5911 4.90277 47.5207 4.75778 47.5071 4.55289C47.5016 4.46908 47.5091 4.37037 47.5296 4.25676C47.6036 3.82157 47.6519 3.42083 47.6743 3.05454C47.7061 2.68763 47.7072 2.28067 47.6775 1.83365C47.6467 1.36801 47.73 1.00236 47.9275 0.736706C48.1343 0.470434 48.41 0.325871 48.7546 0.303015C49.0899 0.280778 49.3475 0.357228 49.5275 0.532366C49.7162 0.697574 49.8207 0.933841 49.8411 1.24117C49.8627 1.56712 49.7936 2.00665 49.6339 2.55977C49.4741 3.11289 49.2716 3.65482 49.0262 4.18556C48.8628 4.54249 48.7289 4.78053 48.6245 4.8997C48.5295 5.01825 48.3935 5.08339 48.2166 5.09513Z" fill="#479CF0"/>
<path d="M53.114 13.4974C52.6297 13.5295 52.2498 13.4425 51.9742 13.2363C51.7079 13.0295 51.5655 12.7863 51.547 12.507C51.531 12.2648 51.6055 12.0494 51.7707 11.8607C51.9359 11.6721 52.1908 11.5663 52.5354 11.5434C52.6565 11.5354 52.7971 11.5401 52.9573 11.5575C53.1261 11.5651 53.2528 11.5707 53.3372 11.5744C53.3118 11.3329 53.2408 11.1085 53.1242 10.9011C53.0169 10.693 52.8822 10.4962 52.7202 10.3105C52.5576 10.1155 52.4062 9.94782 52.2659 9.80746C52.0137 10.3761 51.7552 10.8516 51.4906 11.2339C51.2353 11.6156 50.9509 11.9806 50.6372 12.3288C50.4807 12.5075 50.3093 12.6031 50.1231 12.6154C49.9741 12.6253 49.8496 12.5821 49.7497 12.4859C49.6491 12.3803 49.5936 12.2483 49.5831 12.09C49.5708 11.9038 49.6245 11.7272 49.7444 11.5602L49.9112 11.3246C50.3814 10.6574 50.7333 10.1102 50.9669 9.68317C51.1166 9.40198 51.2629 9.06956 51.4058 8.68593C51.5581 8.30168 51.7526 7.77899 51.9893 7.11787C52.1391 6.69637 52.4934 6.46709 53.0521 6.43002C53.3129 6.41273 53.496 6.42396 53.6016 6.46373C53.7071 6.5035 53.7633 6.57461 53.77 6.67705C53.7738 6.73293 53.761 6.82264 53.7318 6.94617C53.7026 7.06971 53.6594 7.19418 53.6022 7.31957C53.4568 7.66595 53.3918 7.95555 53.4073 8.18837C53.4165 8.32807 53.4733 8.47864 53.5775 8.6401C53.6911 8.80093 53.8587 9.00028 54.0802 9.23814C54.4042 9.60951 54.6499 9.92995 54.8175 10.1995C54.9937 10.459 55.0926 10.7518 55.1142 11.0777C55.1402 11.4689 55.0718 11.8476 54.909 12.2138C54.7549 12.5701 54.522 12.8662 54.2102 13.102C53.8985 13.3378 53.5331 13.4696 53.114 13.4974Z" fill="#479CF0"/>
<path d="M0.76741 23.44H5.23141V37H9.33541V23.44H13.7994V20.152H0.76741V23.44Z" fill="white"/>
<path d="M29.0831 23.608H24.9791V30.88C24.9791 32.704 23.9711 33.712 22.3871 33.712C20.8511 33.712 19.8191 32.704 19.8191 30.88V23.608H15.7391V31.432C15.7391 35.008 17.8271 37.144 20.9231 37.144C22.7231 37.144 24.1631 36.328 24.9791 35.176V37H29.0831V23.608Z" fill="white"/>
<path d="M32.679 32.344C32.679 35.824 34.623 37 37.407 37H39.495V33.52H38.031C37.119 33.52 36.783 33.184 36.783 32.392V27.016H39.471V23.608H36.783V20.344H32.679V23.608H31.047V27.016H32.679V32.344Z" fill="white"/>
<path d="M54.885 30.304C54.885 26.056 51.861 23.416 47.925 23.416C44.013 23.416 40.965 26.056 40.965 30.304C40.965 34.552 43.941 37.192 47.877 37.192C51.813 37.192 54.885 34.552 54.885 30.304ZM45.141 30.304C45.141 28.024 46.437 26.968 47.925 26.968C49.365 26.968 50.709 28.024 50.709 30.304C50.709 32.56 49.341 33.64 47.877 33.64C46.389 33.64 45.141 32.56 45.141 30.304Z" fill="white"/>
<path d="M61.1662 30.784C61.1662 28.48 62.2942 27.808 64.2382 27.808H65.3662V23.464C63.5662 23.464 62.1022 24.424 61.1662 25.84V23.608H57.0622V37H61.1662V30.784Z" fill="white"/>
<path d="M67.3279 37H71.4318V23.608H67.3279V37ZM69.3918 22.216C70.8318 22.216 71.8158 21.232 71.8158 20.008C71.8158 18.76 70.8318 17.776 69.3918 17.776C67.9278 17.776 66.9438 18.76 66.9438 20.008C66.9438 21.232 67.9278 22.216 69.3918 22.216Z" fill="white"/>
<path d="M73.59 30.28C73.59 34.504 76.206 37.192 79.47 37.192C81.462 37.192 82.878 36.28 83.622 35.104V37H87.726V23.608H83.622V25.504C82.902 24.328 81.486 23.416 79.494 23.416C76.206 23.416 73.59 26.056 73.59 30.28ZM83.622 30.304C83.622 32.44 82.254 33.616 80.694 33.616C79.158 33.616 77.766 32.416 77.766 30.28C77.766 28.144 79.158 26.992 80.694 26.992C82.254 26.992 83.622 28.168 83.622 30.304Z" fill="white"/>
<path d="M90.695 37H94.799V19.24H90.695V37Z" fill="white"/>
<path d="M102.859 37H106.963V20.152H102.859V37Z" fill="white"/>
<path d="M119.177 37H123.257V29.176C123.257 25.576 121.193 23.464 118.097 23.464C116.297 23.464 114.857 24.256 114.041 25.384V23.608H109.937V37H114.041V29.728C114.041 27.904 115.049 26.896 116.609 26.896C118.169 26.896 119.177 27.904 119.177 29.728V37Z" fill="white"/>
<path d="M125.293 30.28C125.293 34.504 127.909 37.192 131.197 37.192C133.165 37.192 134.581 36.304 135.325 35.08V37H139.429V19.24H135.325V25.456C134.509 24.232 132.973 23.416 131.197 23.416C127.909 23.416 125.293 26.056 125.293 30.28ZM135.325 30.304C135.325 32.44 133.957 33.616 132.397 33.616C130.861 33.616 129.469 32.416 129.469 30.28C129.469 28.144 130.861 26.992 132.397 26.992C133.957 26.992 135.325 28.168 135.325 30.304Z" fill="white"/>
<path d="M148.302 26.704C149.67 26.704 150.822 27.544 150.822 29.008H145.686C145.926 27.52 146.958 26.704 148.302 26.704ZM154.71 32.56H150.342C150.006 33.28 149.358 33.856 148.206 33.856C146.886 33.856 145.806 33.04 145.662 31.288H154.95C154.998 30.88 155.022 30.472 155.022 30.088C155.022 26.008 152.262 23.416 148.35 23.416C144.366 23.416 141.582 26.056 141.582 30.304C141.582 34.552 144.414 37.192 148.35 37.192C151.686 37.192 154.062 35.176 154.71 32.56Z" fill="white"/>
<path d="M165.107 37H169.715L165.107 30.352L169.595 23.608H165.155L162.995 27.304L160.427 23.608H155.819L160.355 30.16L155.939 37H160.379L162.539 33.28L165.107 37Z" fill="white"/>
</svg>
